<?xml version="1.0" encoding="UTF-8"?>
<svg width="1600px" height="1200px" viewBox="0 0 1600 1200" version="1.1" xmlns="http://www.w3.org/2000/svg" xmlns:xlink="http://www.w3.org/1999/xlink">
    <!-- Generator: Sketch 55.2 (78181) - https://sketchapp.com -->
    <title>Mataura</title>
    <desc>Created with Sketch.</desc>
    <g id="Patterns" stroke="none" stroke-width="1" fill="none" fill-rule="evenodd">
        <g id="Mataura" fill-rule="nonzero">
            <g transform="translate(-590.000000, -735.000000)" id="Shape">
                <rect fill="#F83C1E" transform="translate(1388.000000, 2435.500000) rotate(43.000000) translate(-1388.000000, -2435.500000) " x="745" y="1758" width="1286" height="1355"></rect>
                <rect fill="#2C99B0" transform="translate(2029.000000, 1267.500000) rotate(43.000000) translate(-2029.000000, -1267.500000) " x="1200" y="590" width="1658" height="1355"></rect>
                <rect fill="#F6B800" transform="translate(1998.000000, 2087.000000) rotate(43.000000) translate(-1998.000000, -2087.000000) " x="1355" y="1840" width="1286" height="494"></rect>
                <path d="M1889.05173,948.728968 C1870.27405,948.728968 1855.05173,933.50665 1855.05173,914.728968 C1855.05173,895.951287 1870.27405,880.728968 1889.05173,880.728968 C1907.82941,880.728968 1923.05173,895.951287 1923.05173,914.728968 C1923.05173,933.50665 1907.82941,948.728968 1889.05173,948.728968 Z M2024.97531,937.652543 C2006.19763,937.652543 1990.97531,922.430225 1990.97531,903.652543 C1990.97531,884.874862 2006.19763,869.652543 2024.97531,869.652543 C2043.75299,869.652543 2058.97531,884.874862 2058.97531,903.652543 C2058.97531,922.430225 2043.75299,937.652543 2024.97531,937.652543 Z M2177.97531,937.652543 C2159.19763,937.652543 2143.97531,922.430225 2143.97531,903.652543 C2143.97531,884.874862 2159.19763,869.652543 2177.97531,869.652543 C2196.75299,869.652543 2211.97531,884.874862 2211.97531,903.652543 C2211.97531,922.430225 2196.75299,937.652543 2177.97531,937.652543 Z M2341.8259,937.468037 C2323.04822,937.468037 2307.8259,922.245719 2307.8259,903.468037 C2307.8259,884.690356 2323.04822,869.468037 2341.8259,869.468037 C2360.60358,869.468037 2375.8259,884.690356 2375.8259,903.468037 C2375.8259,922.245719 2360.60358,937.468037 2341.8259,937.468037 Z M1889.05173,1057.72897 C1879.66289,1057.72897 1872.05173,1050.11781 1872.05173,1040.72897 C1872.05173,1031.34013 1879.66289,1023.72897 1889.05173,1023.72897 C1898.44057,1023.72897 1906.05173,1031.34013 1906.05173,1040.72897 C1906.05173,1050.11781 1898.44057,1057.72897 1889.05173,1057.72897 Z M2040.05173,1057.72897 C2030.66289,1057.72897 2023.05173,1050.11781 2023.05173,1040.72897 C2023.05173,1031.34013 2030.66289,1023.72897 2040.05173,1023.72897 C2049.44057,1023.72897 2057.05173,1031.34013 2057.05173,1040.72897 C2057.05173,1050.11781 2049.44057,1057.72897 2040.05173,1057.72897 Z M2191.05173,1057.72897 C2181.66289,1057.72897 2174.05173,1050.11781 2174.05173,1040.72897 C2174.05173,1031.34013 2181.66289,1023.72897 2191.05173,1023.72897 C2200.44057,1023.72897 2208.05173,1031.34013 2208.05173,1040.72897 C2208.05173,1050.11781 2200.44057,1057.72897 2191.05173,1057.72897 Z M2341.8259,1057.64675 C2332.43706,1057.64675 2324.8259,1050.03559 2324.8259,1040.64675 C2324.8259,1031.25791 2332.43706,1023.64675 2341.8259,1023.64675 C2351.21474,1023.64675 2358.8259,1031.25791 2358.8259,1040.64675 C2358.8259,1050.03559 2351.21474,1057.64675 2341.8259,1057.64675 Z" fill="#FFEAAB" transform="translate(2115.438817, 963.598503) rotate(-45.000000) translate(-2115.438817, -963.598503) "></path>
            </g>
        </g>
    </g>
</svg>